<mxfile host="Electron" agent="Mozilla/5.0 (Macintosh; Intel Mac OS X 10_15_7) AppleWebKit/537.36 (KHTML, like Gecko) draw.io/26.0.15 Chrome/132.0.6834.196 Electron/34.2.0 Safari/537.36" version="26.0.15">
  <diagram name="Page-1" id="DsKCn4apmS_QsH5NpR0J">
    <mxGraphModel dx="1656" dy="1209" grid="1" gridSize="10" guides="1" tooltips="1" connect="1" arrows="1" fold="1" page="1" pageScale="1" pageWidth="827" pageHeight="1169" math="0" shadow="0">
      <root>
        <mxCell id="0" />
        <mxCell id="1" parent="0" />
        <mxCell id="WfShSH8Nfw88cSmPW10R-2" value="" style="whiteSpace=wrap;html=1;fillColor=#e1d5e7;strokeColor=#9673a6;" vertex="1" parent="1">
          <mxGeometry x="40" y="160" width="160" height="1070" as="geometry" />
        </mxCell>
        <mxCell id="WfShSH8Nfw88cSmPW10R-3" value="&lt;b&gt;&lt;font style=&quot;font-size: 15px;&quot;&gt;QUIZ Platform&lt;/font&gt;&lt;/b&gt;" style="rounded=1;whiteSpace=wrap;html=1;fillColor=#f8cecc;strokeColor=#b85450;" vertex="1" parent="1">
          <mxGeometry x="40" y="160" width="160" height="30" as="geometry" />
        </mxCell>
        <mxCell id="WfShSH8Nfw88cSmPW10R-4" value="Create Question" style="rounded=1;whiteSpace=wrap;html=1;fillColor=#d5e8d4;strokeColor=#82b366;" vertex="1" parent="1">
          <mxGeometry x="40" y="190" width="160" height="40" as="geometry" />
        </mxCell>
        <mxCell id="WfShSH8Nfw88cSmPW10R-5" value="Question Banks" style="rounded=1;whiteSpace=wrap;html=1;fillColor=#d5e8d4;strokeColor=#82b366;" vertex="1" parent="1">
          <mxGeometry x="40" y="230" width="160" height="40" as="geometry" />
        </mxCell>
        <mxCell id="WfShSH8Nfw88cSmPW10R-6" value="Create Quizzes" style="rounded=1;whiteSpace=wrap;html=1;fillColor=#d5e8d4;strokeColor=#82b366;" vertex="1" parent="1">
          <mxGeometry x="40" y="270" width="160" height="40" as="geometry" />
        </mxCell>
        <mxCell id="WfShSH8Nfw88cSmPW10R-7" value="Login / Logout" style="rounded=1;whiteSpace=wrap;html=1;" vertex="1" parent="1">
          <mxGeometry x="40" y="1190" width="160" height="40" as="geometry" />
        </mxCell>
        <mxCell id="WfShSH8Nfw88cSmPW10R-8" value="" style="rounded=0;whiteSpace=wrap;html=1;align=center;fillColor=#f5f5f5;fontColor=#333333;strokeColor=#666666;perimeterSpacing=1;strokeWidth=2;" vertex="1" parent="1">
          <mxGeometry x="200" y="160" width="600" height="250" as="geometry" />
        </mxCell>
        <mxCell id="WfShSH8Nfw88cSmPW10R-10" value="Create Question UI" style="text;html=1;align=center;verticalAlign=middle;whiteSpace=wrap;rounded=0;fontStyle=1" vertex="1" parent="1">
          <mxGeometry x="450" y="160" width="120" height="30" as="geometry" />
        </mxCell>
        <mxCell id="WfShSH8Nfw88cSmPW10R-11" value="Question :&amp;nbsp;&lt;div&gt;&lt;br&gt;&lt;/div&gt;&lt;div&gt;Question Type :&amp;nbsp;&lt;/div&gt;&lt;div&gt;&lt;br&gt;&lt;/div&gt;&lt;div&gt;&lt;span style=&quot;background-color: transparent; color: light-dark(rgb(0, 0, 0), rgb(255, 255, 255));&quot;&gt;Explanation? :&lt;/span&gt;&lt;/div&gt;&lt;div&gt;&lt;br&gt;&lt;/div&gt;&lt;div&gt;Select Question Bank :&amp;nbsp;&lt;/div&gt;&lt;div&gt;&lt;br&gt;&lt;/div&gt;&lt;div&gt;Answers :&lt;/div&gt;" style="text;html=1;align=left;verticalAlign=middle;whiteSpace=wrap;rounded=0;" vertex="1" parent="1">
          <mxGeometry x="220" y="185" width="150" height="190" as="geometry" />
        </mxCell>
        <mxCell id="WfShSH8Nfw88cSmPW10R-12" value="&lt;font style=&quot;color: rgb(153, 153, 153);&quot;&gt;Type your question description here ....&lt;/font&gt;" style="rounded=1;whiteSpace=wrap;html=1;" vertex="1" parent="1">
          <mxGeometry x="354" y="210" width="236" height="20" as="geometry" />
        </mxCell>
        <mxCell id="WfShSH8Nfw88cSmPW10R-13" value="&lt;font style=&quot;color: rgb(153, 153, 153);&quot;&gt;Drop Down - single-choice/multi-choice/number/date/text&lt;/font&gt;" style="rounded=1;whiteSpace=wrap;html=1;" vertex="1" parent="1">
          <mxGeometry x="354" y="240" width="386" height="20" as="geometry" />
        </mxCell>
        <mxCell id="WfShSH8Nfw88cSmPW10R-14" value="&lt;font style=&quot;color: rgb(153, 153, 153);&quot;&gt;Add any explanation to show after user gives an answer&lt;/font&gt;" style="rounded=1;whiteSpace=wrap;html=1;" vertex="1" parent="1">
          <mxGeometry x="354" y="270" width="386" height="20" as="geometry" />
        </mxCell>
        <mxCell id="WfShSH8Nfw88cSmPW10R-15" value="&lt;font style=&quot;color: rgb(153, 153, 153);&quot;&gt;Current Q-Banks&lt;/font&gt;" style="rounded=1;whiteSpace=wrap;html=1;" vertex="1" parent="1">
          <mxGeometry x="354" y="300" width="126" height="20" as="geometry" />
        </mxCell>
        <mxCell id="WfShSH8Nfw88cSmPW10R-16" value="&lt;font style=&quot;color: rgb(153, 153, 153);&quot;&gt;New Q-Bank Name&lt;/font&gt;" style="rounded=1;whiteSpace=wrap;html=1;" vertex="1" parent="1">
          <mxGeometry x="484" y="300" width="256" height="20" as="geometry" />
        </mxCell>
        <mxCell id="WfShSH8Nfw88cSmPW10R-17" value="&lt;div&gt;&lt;font style=&quot;color: rgb(153, 153, 153);&quot;&gt;&lt;br&gt;&lt;/font&gt;&lt;/div&gt;&lt;font style=&quot;color: rgb(153, 153, 153);&quot;&gt;Custom UI to create answers based on question type&amp;nbsp;&lt;/font&gt;&lt;span style=&quot;color: rgb(153, 153, 153); background-color: transparent;&quot;&gt;radio button, checkbox, number, date and text inputs&amp;nbsp;&lt;/span&gt;&lt;span style=&quot;color: rgb(153, 153, 153); background-color: transparent;&quot;&gt;in case of choices - a + button to add more options&lt;/span&gt;" style="rounded=1;whiteSpace=wrap;html=1;" vertex="1" parent="1">
          <mxGeometry x="354" y="330" width="276" height="70" as="geometry" />
        </mxCell>
        <mxCell id="WfShSH8Nfw88cSmPW10R-19" value="" style="rounded=0;whiteSpace=wrap;html=1;fillColor=#f5f5f5;fontColor=#333333;strokeColor=#666666;strokeWidth=2;" vertex="1" parent="1">
          <mxGeometry x="200" y="410" width="600" height="230" as="geometry" />
        </mxCell>
        <mxCell id="WfShSH8Nfw88cSmPW10R-20" value="Question Banks UI" style="text;html=1;align=center;verticalAlign=middle;whiteSpace=wrap;rounded=0;fontStyle=1" vertex="1" parent="1">
          <mxGeometry x="487" y="420" width="120" height="30" as="geometry" />
        </mxCell>
        <mxCell id="WfShSH8Nfw88cSmPW10R-21" value="" style="rounded=0;whiteSpace=wrap;html=1;fillColor=#fff2cc;strokeColor=#d6b656;strokeWidth=2;" vertex="1" parent="1">
          <mxGeometry x="200" y="410" width="120" height="230" as="geometry" />
        </mxCell>
        <mxCell id="WfShSH8Nfw88cSmPW10R-22" value="Q-Bank List" style="text;html=1;align=center;verticalAlign=middle;whiteSpace=wrap;rounded=0;" vertex="1" parent="1">
          <mxGeometry x="220" y="410" width="70" height="30" as="geometry" />
        </mxCell>
        <mxCell id="WfShSH8Nfw88cSmPW10R-23" value="&lt;font style=&quot;color: rgb(153, 153, 153);&quot;&gt;Search List ...&lt;/font&gt;" style="rounded=1;whiteSpace=wrap;html=1;fillColor=#fff2cc;strokeColor=#d6b656;" vertex="1" parent="1">
          <mxGeometry x="200" y="450" width="120" height="20" as="geometry" />
        </mxCell>
        <mxCell id="WfShSH8Nfw88cSmPW10R-24" value="&lt;b&gt;Question Bank 1&lt;/b&gt;&lt;div&gt;&lt;br&gt;&lt;/div&gt;&lt;div&gt;Question Bank 2&lt;/div&gt;&lt;div&gt;&lt;br&gt;&lt;/div&gt;&lt;div&gt;Question Bank 3&lt;/div&gt;&lt;div&gt;&lt;br&gt;&lt;/div&gt;&lt;div&gt;&lt;br&gt;&lt;/div&gt;&lt;div&gt;&lt;b&gt;...&lt;/b&gt;&lt;/div&gt;" style="text;html=1;align=center;verticalAlign=middle;whiteSpace=wrap;rounded=0;" vertex="1" parent="1">
          <mxGeometry x="205" y="540" width="110" height="30" as="geometry" />
        </mxCell>
        <mxCell id="WfShSH8Nfw88cSmPW10R-26" value="&lt;font style=&quot;color: rgb(153, 153, 153);&quot;&gt;Search Questions ...&lt;/font&gt;" style="rounded=1;whiteSpace=wrap;html=1;" vertex="1" parent="1">
          <mxGeometry x="320" y="450" width="480" height="20" as="geometry" />
        </mxCell>
        <mxCell id="WfShSH8Nfw88cSmPW10R-27" value="Question Description" style="rounded=1;whiteSpace=wrap;html=1;fillColor=#ffe6cc;strokeColor=#d79b00;" vertex="1" parent="1">
          <mxGeometry x="380" y="490" width="320" height="20" as="geometry" />
        </mxCell>
        <mxCell id="WfShSH8Nfw88cSmPW10R-28" value="Edit" style="rhombus;whiteSpace=wrap;html=1;" vertex="1" parent="1">
          <mxGeometry x="700" y="485" width="40" height="30" as="geometry" />
        </mxCell>
        <mxCell id="WfShSH8Nfw88cSmPW10R-29" value="&lt;font style=&quot;color: rgb(161, 32, 32);&quot;&gt;X&lt;/font&gt;" style="rhombus;whiteSpace=wrap;html=1;" vertex="1" parent="1">
          <mxGeometry x="740" y="485" width="40" height="30" as="geometry" />
        </mxCell>
        <mxCell id="WfShSH8Nfw88cSmPW10R-31" value="1." style="rhombus;whiteSpace=wrap;html=1;" vertex="1" parent="1">
          <mxGeometry x="340" y="485" width="40" height="30" as="geometry" />
        </mxCell>
        <mxCell id="WfShSH8Nfw88cSmPW10R-32" value="" style="endArrow=classic;html=1;rounded=0;" edge="1" parent="1" source="WfShSH8Nfw88cSmPW10R-28" target="WfShSH8Nfw88cSmPW10R-17">
          <mxGeometry width="50" height="50" relative="1" as="geometry">
            <mxPoint x="710" y="500" as="sourcePoint" />
            <mxPoint x="760" y="450" as="targetPoint" />
          </mxGeometry>
        </mxCell>
        <mxCell id="WfShSH8Nfw88cSmPW10R-33" value="Redirects here to update question" style="edgeLabel;html=1;align=center;verticalAlign=middle;resizable=0;points=[];" vertex="1" connectable="0" parent="WfShSH8Nfw88cSmPW10R-32">
          <mxGeometry x="0.4618" y="-2" relative="1" as="geometry">
            <mxPoint as="offset" />
          </mxGeometry>
        </mxCell>
        <mxCell id="WfShSH8Nfw88cSmPW10R-34" value="Question Description" style="rounded=1;whiteSpace=wrap;html=1;fillColor=#ffe6cc;strokeColor=#d79b00;" vertex="1" parent="1">
          <mxGeometry x="380" y="530" width="320" height="20" as="geometry" />
        </mxCell>
        <mxCell id="WfShSH8Nfw88cSmPW10R-35" value="Edit" style="rhombus;whiteSpace=wrap;html=1;" vertex="1" parent="1">
          <mxGeometry x="700" y="525" width="40" height="30" as="geometry" />
        </mxCell>
        <mxCell id="WfShSH8Nfw88cSmPW10R-36" value="&lt;font style=&quot;color: rgb(161, 32, 32);&quot;&gt;X&lt;/font&gt;" style="rhombus;whiteSpace=wrap;html=1;" vertex="1" parent="1">
          <mxGeometry x="740" y="525" width="40" height="30" as="geometry" />
        </mxCell>
        <mxCell id="WfShSH8Nfw88cSmPW10R-37" value="2." style="rhombus;whiteSpace=wrap;html=1;" vertex="1" parent="1">
          <mxGeometry x="340" y="525" width="40" height="30" as="geometry" />
        </mxCell>
        <mxCell id="WfShSH8Nfw88cSmPW10R-38" value="Question Description" style="rounded=1;whiteSpace=wrap;html=1;fillColor=#ffe6cc;strokeColor=#d79b00;" vertex="1" parent="1">
          <mxGeometry x="380" y="575" width="320" height="20" as="geometry" />
        </mxCell>
        <mxCell id="WfShSH8Nfw88cSmPW10R-39" value="Edit" style="rhombus;whiteSpace=wrap;html=1;" vertex="1" parent="1">
          <mxGeometry x="700" y="570" width="40" height="30" as="geometry" />
        </mxCell>
        <mxCell id="WfShSH8Nfw88cSmPW10R-40" value="&lt;font style=&quot;color: rgb(161, 32, 32);&quot;&gt;X&lt;/font&gt;" style="rhombus;whiteSpace=wrap;html=1;" vertex="1" parent="1">
          <mxGeometry x="740" y="570" width="40" height="30" as="geometry" />
        </mxCell>
        <mxCell id="WfShSH8Nfw88cSmPW10R-41" value="3." style="rhombus;whiteSpace=wrap;html=1;" vertex="1" parent="1">
          <mxGeometry x="340" y="570" width="40" height="30" as="geometry" />
        </mxCell>
        <mxCell id="WfShSH8Nfw88cSmPW10R-46" value="..." style="text;html=1;align=center;verticalAlign=middle;whiteSpace=wrap;rounded=0;" vertex="1" parent="1">
          <mxGeometry x="510" y="610" width="60" height="30" as="geometry" />
        </mxCell>
        <mxCell id="WfShSH8Nfw88cSmPW10R-47" value="" style="rounded=0;whiteSpace=wrap;html=1;fillColor=#f5f5f5;fontColor=#333333;strokeColor=#666666;" vertex="1" parent="1">
          <mxGeometry x="200" y="640" width="600" height="280" as="geometry" />
        </mxCell>
        <mxCell id="WfShSH8Nfw88cSmPW10R-51" value="" style="rounded=0;whiteSpace=wrap;html=1;fillColor=#fff2cc;strokeColor=#d6b656;strokeWidth=2;" vertex="1" parent="1">
          <mxGeometry x="200" y="640" width="120" height="280" as="geometry" />
        </mxCell>
        <mxCell id="WfShSH8Nfw88cSmPW10R-52" value="Quizzes List" style="text;html=1;align=center;verticalAlign=middle;whiteSpace=wrap;rounded=0;" vertex="1" parent="1">
          <mxGeometry x="225" y="645" width="70" height="30" as="geometry" />
        </mxCell>
        <mxCell id="WfShSH8Nfw88cSmPW10R-53" value="&lt;font style=&quot;color: rgb(153, 153, 153);&quot;&gt;Search List ...&lt;/font&gt;" style="rounded=1;whiteSpace=wrap;html=1;fillColor=#fff2cc;strokeColor=#d6b656;" vertex="1" parent="1">
          <mxGeometry x="200" y="680" width="120" height="20" as="geometry" />
        </mxCell>
        <mxCell id="WfShSH8Nfw88cSmPW10R-54" value="&lt;div&gt;&lt;b style=&quot;background-color: transparent; color: light-dark(rgb(0, 0, 0), rgb(255, 255, 255));&quot;&gt;Quiz 1&lt;/b&gt;&lt;/div&gt;&lt;div&gt;&lt;br&gt;&lt;/div&gt;&lt;div&gt;Quiz 2&lt;/div&gt;&lt;div&gt;&lt;br&gt;&lt;/div&gt;&lt;div&gt;Quiz 3&lt;/div&gt;&lt;div&gt;&lt;br&gt;&lt;/div&gt;&lt;div&gt;&lt;br&gt;&lt;/div&gt;&lt;div&gt;&lt;b&gt;...&lt;/b&gt;&lt;/div&gt;" style="text;html=1;align=center;verticalAlign=middle;whiteSpace=wrap;rounded=0;" vertex="1" parent="1">
          <mxGeometry x="215" y="765" width="90" height="30" as="geometry" />
        </mxCell>
        <mxCell id="WfShSH8Nfw88cSmPW10R-56" value="" style="rounded=0;whiteSpace=wrap;html=1;fillColor=#f5f5f5;fontColor=#333333;strokeColor=#666666;" vertex="1" parent="1">
          <mxGeometry x="320" y="640" width="240" height="280" as="geometry" />
        </mxCell>
        <mxCell id="WfShSH8Nfw88cSmPW10R-57" value="" style="rounded=0;whiteSpace=wrap;html=1;fillColor=#f5f5f5;fontColor=#333333;strokeColor=#666666;" vertex="1" parent="1">
          <mxGeometry x="560" y="640" width="240" height="280" as="geometry" />
        </mxCell>
        <mxCell id="WfShSH8Nfw88cSmPW10R-58" value="&lt;i&gt;Create/Update Quiz&lt;/i&gt;" style="text;html=1;align=center;verticalAlign=middle;whiteSpace=wrap;rounded=0;" vertex="1" parent="1">
          <mxGeometry x="380" y="670" width="120" height="30" as="geometry" />
        </mxCell>
        <mxCell id="WfShSH8Nfw88cSmPW10R-59" value="&lt;i&gt;Order Quiz Questions&lt;/i&gt;" style="text;html=1;align=center;verticalAlign=middle;whiteSpace=wrap;rounded=0;" vertex="1" parent="1">
          <mxGeometry x="620" y="670" width="130" height="30" as="geometry" />
        </mxCell>
        <mxCell id="WfShSH8Nfw88cSmPW10R-63" value="&lt;font style=&quot;color: rgb(153, 153, 153);&quot;&gt;Type quiz name ...&lt;/font&gt;" style="rounded=1;whiteSpace=wrap;html=1;" vertex="1" parent="1">
          <mxGeometry x="420" y="730" width="130" height="20" as="geometry" />
        </mxCell>
        <mxCell id="WfShSH8Nfw88cSmPW10R-64" value="Name&lt;div&gt;&lt;br&gt;&lt;/div&gt;&lt;div&gt;&lt;br&gt;&lt;/div&gt;&lt;div&gt;Select Ques&lt;/div&gt;&lt;div&gt;&lt;br&gt;&lt;/div&gt;&lt;div&gt;&lt;br&gt;&lt;/div&gt;&lt;div&gt;Quiz Time&lt;/div&gt;" style="text;html=1;align=right;verticalAlign=middle;whiteSpace=wrap;rounded=0;" vertex="1" parent="1">
          <mxGeometry x="330" y="770" width="70" height="30" as="geometry" />
        </mxCell>
        <mxCell id="WfShSH8Nfw88cSmPW10R-65" value="&lt;font style=&quot;color: rgb(153, 153, 153);&quot;&gt;Add/Select tags here&lt;/font&gt;" style="rounded=1;whiteSpace=wrap;html=1;" vertex="1" parent="1">
          <mxGeometry x="591" y="210" width="149" height="20" as="geometry" />
        </mxCell>
        <mxCell id="WfShSH8Nfw88cSmPW10R-66" value="&lt;font style=&quot;color: rgb(153, 153, 153);&quot;&gt;Select questions...&lt;/font&gt;" style="rounded=1;whiteSpace=wrap;html=1;" vertex="1" parent="1">
          <mxGeometry x="420" y="775" width="130" height="20" as="geometry" />
        </mxCell>
        <mxCell id="WfShSH8Nfw88cSmPW10R-69" value="Ques 1" style="rounded=1;whiteSpace=wrap;html=1;fillColor=#ffe6cc;strokeColor=#d79b00;" vertex="1" parent="1">
          <mxGeometry x="599.5" y="712.5" width="80.5" height="25" as="geometry" />
        </mxCell>
        <mxCell id="WfShSH8Nfw88cSmPW10R-77" value="+ve" style="rhombus;whiteSpace=wrap;html=1;" vertex="1" parent="1">
          <mxGeometry x="680" y="710" width="38" height="30" as="geometry" />
        </mxCell>
        <mxCell id="WfShSH8Nfw88cSmPW10R-78" value="-ve" style="rhombus;whiteSpace=wrap;html=1;" vertex="1" parent="1">
          <mxGeometry x="718" y="710" width="40" height="30" as="geometry" />
        </mxCell>
        <mxCell id="WfShSH8Nfw88cSmPW10R-79" value="::" style="rhombus;whiteSpace=wrap;html=1;" vertex="1" parent="1">
          <mxGeometry x="569.5" y="712.5" width="29" height="22.5" as="geometry" />
        </mxCell>
        <mxCell id="WfShSH8Nfw88cSmPW10R-80" value="Ques 2" style="rounded=1;whiteSpace=wrap;html=1;fillColor=#ffe6cc;strokeColor=#d79b00;" vertex="1" parent="1">
          <mxGeometry x="599.5" y="762.5" width="80.5" height="25" as="geometry" />
        </mxCell>
        <mxCell id="WfShSH8Nfw88cSmPW10R-83" value="::" style="rhombus;whiteSpace=wrap;html=1;" vertex="1" parent="1">
          <mxGeometry x="569.5" y="762.5" width="29" height="22.5" as="geometry" />
        </mxCell>
        <mxCell id="WfShSH8Nfw88cSmPW10R-84" value="Ques 3" style="rounded=1;whiteSpace=wrap;html=1;fillColor=#ffe6cc;strokeColor=#d79b00;" vertex="1" parent="1">
          <mxGeometry x="600" y="812.5" width="80" height="25" as="geometry" />
        </mxCell>
        <mxCell id="WfShSH8Nfw88cSmPW10R-87" value="::" style="rhombus;whiteSpace=wrap;html=1;" vertex="1" parent="1">
          <mxGeometry x="570" y="812.5" width="29" height="22.5" as="geometry" />
        </mxCell>
        <mxCell id="WfShSH8Nfw88cSmPW10R-88" value="&lt;b&gt;...&lt;/b&gt;" style="text;html=1;align=center;verticalAlign=middle;whiteSpace=wrap;rounded=0;" vertex="1" parent="1">
          <mxGeometry x="647.5" y="850" width="60" height="30" as="geometry" />
        </mxCell>
        <mxCell id="WfShSH8Nfw88cSmPW10R-89" value="&lt;font style=&quot;color: rgb(153, 153, 153);&quot;&gt;Add quiz time...&lt;/font&gt;" style="rounded=1;whiteSpace=wrap;html=1;" vertex="1" parent="1">
          <mxGeometry x="420" y="817.5" width="130" height="20" as="geometry" />
        </mxCell>
        <mxCell id="WfShSH8Nfw88cSmPW10R-91" value="&lt;font style=&quot;color: rgb(161, 32, 32);&quot;&gt;X&lt;/font&gt;" style="rhombus;whiteSpace=wrap;html=1;" vertex="1" parent="1">
          <mxGeometry x="758" y="710" width="40" height="30" as="geometry" />
        </mxCell>
        <mxCell id="WfShSH8Nfw88cSmPW10R-92" value="Create/Update Quiz" style="rounded=1;whiteSpace=wrap;html=1;fillColor=#e1d5e7;strokeColor=#9673a6;" vertex="1" parent="1">
          <mxGeometry x="352" y="870" width="176" height="20" as="geometry" />
        </mxCell>
        <mxCell id="WfShSH8Nfw88cSmPW10R-93" value="+ve" style="rhombus;whiteSpace=wrap;html=1;" vertex="1" parent="1">
          <mxGeometry x="680" y="760" width="38" height="30" as="geometry" />
        </mxCell>
        <mxCell id="WfShSH8Nfw88cSmPW10R-94" value="-ve" style="rhombus;whiteSpace=wrap;html=1;" vertex="1" parent="1">
          <mxGeometry x="718" y="760" width="40" height="30" as="geometry" />
        </mxCell>
        <mxCell id="WfShSH8Nfw88cSmPW10R-95" value="&lt;font style=&quot;color: rgb(161, 32, 32);&quot;&gt;X&lt;/font&gt;" style="rhombus;whiteSpace=wrap;html=1;" vertex="1" parent="1">
          <mxGeometry x="758" y="760" width="40" height="30" as="geometry" />
        </mxCell>
        <mxCell id="WfShSH8Nfw88cSmPW10R-96" value="+ve" style="rhombus;whiteSpace=wrap;html=1;" vertex="1" parent="1">
          <mxGeometry x="680" y="810" width="38" height="30" as="geometry" />
        </mxCell>
        <mxCell id="WfShSH8Nfw88cSmPW10R-97" value="-ve" style="rhombus;whiteSpace=wrap;html=1;" vertex="1" parent="1">
          <mxGeometry x="718" y="810" width="40" height="30" as="geometry" />
        </mxCell>
        <mxCell id="WfShSH8Nfw88cSmPW10R-98" value="&lt;font style=&quot;color: rgb(161, 32, 32);&quot;&gt;X&lt;/font&gt;" style="rhombus;whiteSpace=wrap;html=1;" vertex="1" parent="1">
          <mxGeometry x="758" y="810" width="40" height="30" as="geometry" />
        </mxCell>
        <mxCell id="WfShSH8Nfw88cSmPW10R-100" value="" style="rounded=0;whiteSpace=wrap;html=1;fillColor=#f5f5f5;fontColor=#333333;strokeColor=#666666;" vertex="1" parent="1">
          <mxGeometry x="200" y="920" width="600" height="310" as="geometry" />
        </mxCell>
        <mxCell id="WfShSH8Nfw88cSmPW10R-48" value="Create and Update Quizzes UI" style="text;html=1;align=center;verticalAlign=middle;whiteSpace=wrap;rounded=0;fontStyle=1" vertex="1" parent="1">
          <mxGeometry x="480" y="640" width="180" height="30" as="geometry" />
        </mxCell>
        <mxCell id="WfShSH8Nfw88cSmPW10R-102" value="&lt;b&gt;Create Question&lt;/b&gt;" style="rounded=1;whiteSpace=wrap;html=1;fillColor=#e1d5e7;strokeColor=#9673a6;" vertex="1" parent="1">
          <mxGeometry x="647.5" y="360" width="112.5" height="30" as="geometry" />
        </mxCell>
        <mxCell id="WfShSH8Nfw88cSmPW10R-103" value="Play a Quiz UI" style="text;html=1;align=center;verticalAlign=middle;whiteSpace=wrap;rounded=0;fontStyle=1" vertex="1" parent="1">
          <mxGeometry x="414" y="920" width="180" height="30" as="geometry" />
        </mxCell>
        <mxCell id="WfShSH8Nfw88cSmPW10R-104" value="Select Quiz" style="text;html=1;align=center;verticalAlign=middle;whiteSpace=wrap;rounded=0;" vertex="1" parent="1">
          <mxGeometry x="215" y="950" width="65" height="30" as="geometry" />
        </mxCell>
        <mxCell id="WfShSH8Nfw88cSmPW10R-105" value="&lt;font style=&quot;color: rgb(153, 153, 153);&quot;&gt;Select quiz dropdown...&lt;/font&gt;" style="rounded=1;whiteSpace=wrap;html=1;" vertex="1" parent="1">
          <mxGeometry x="283.5" y="955" width="130" height="20" as="geometry" />
        </mxCell>
        <mxCell id="WfShSH8Nfw88cSmPW10R-108" value="Start Quiz" style="rounded=1;whiteSpace=wrap;html=1;fillColor=#d5e8d4;strokeColor=#82b366;" vertex="1" parent="1">
          <mxGeometry x="422" y="955" width="78" height="20" as="geometry" />
        </mxCell>
        <mxCell id="WfShSH8Nfw88cSmPW10R-109" value="Score: &lt;b&gt;10/20&amp;nbsp;&amp;nbsp;&lt;/b&gt; &lt;font style=&quot;color: rgb(179, 179, 179);&quot;&gt;|&lt;/font&gt;&amp;nbsp; &amp;nbsp;Time Left : &lt;b&gt;02:39&lt;/b&gt;" style="text;html=1;align=center;verticalAlign=middle;whiteSpace=wrap;rounded=0;" vertex="1" parent="1">
          <mxGeometry x="582.88" y="950" width="204.25" height="30" as="geometry" />
        </mxCell>
        <mxCell id="WfShSH8Nfw88cSmPW10R-111" value="" style="rounded=1;whiteSpace=wrap;html=1;fillColor=#CCCCCC;strokeColor=#E6E6E6;fontColor=#333333;strokeWidth=5;" vertex="1" parent="1">
          <mxGeometry x="283.5" y="1000" width="446.5" height="210" as="geometry" />
        </mxCell>
        <mxCell id="WfShSH8Nfw88cSmPW10R-112" value="Question Description ..." style="rounded=1;whiteSpace=wrap;html=1;fillColor=#f5f5f5;fontColor=#333333;strokeColor=#666666;" vertex="1" parent="1">
          <mxGeometry x="305" y="1020" width="405" height="20" as="geometry" />
        </mxCell>
        <mxCell id="WfShSH8Nfw88cSmPW10R-114" value="Custom UI for answer selection" style="rounded=1;whiteSpace=wrap;html=1;fillColor=#f5f5f5;fontColor=#333333;strokeColor=#666666;" vertex="1" parent="1">
          <mxGeometry x="305" y="1050" width="405" height="90" as="geometry" />
        </mxCell>
        <mxCell id="WfShSH8Nfw88cSmPW10R-115" value="Go Back&lt;span style=&quot;color: rgba(0, 0, 0, 0); font-family: monospace; font-size: 0px; text-align: start; text-wrap-mode: nowrap;&quot;&gt;%3CmxGraphModel%3E%3Croot%3E%3CmxCell%20id%3D%220%22%2F%3E%3CmxCell%20id%3D%221%22%20parent%3D%220%22%2F%3E%3CmxCell%20id%3D%222%22%20value%3D%22Start%20Quiz%22%20style%3D%22rounded%3D1%3BwhiteSpace%3Dwrap%3Bhtml%3D1%3BfillColor%3D%23d5e8d4%3BstrokeColor%3D%2382b366%3B%22%20vertex%3D%221%22%20parent%3D%221%22%3E%3CmxGeometry%20x%3D%22422%22%20y%3D%22955%22%20width%3D%2278%22%20height%3D%2220%22%20as%3D%22geometry%22%2F%3E%3C%2FmxCell%3E%3C%2Froot%3E%3C%2FmxGraphModel%3E&lt;/span&gt;" style="rounded=1;whiteSpace=wrap;html=1;fillColor=#f5f5f5;strokeColor=#666666;fontColor=#333333;" vertex="1" parent="1">
          <mxGeometry x="305" y="1160" width="78" height="20" as="geometry" />
        </mxCell>
        <mxCell id="WfShSH8Nfw88cSmPW10R-116" value="Submit" style="rounded=1;whiteSpace=wrap;html=1;fillColor=#B9E0A5;strokeColor=#82b366;" vertex="1" parent="1">
          <mxGeometry x="390" y="1160" width="230" height="20" as="geometry" />
        </mxCell>
        <mxCell id="WfShSH8Nfw88cSmPW10R-117" value="Go Next" style="rounded=1;whiteSpace=wrap;html=1;fillColor=#dae8fc;strokeColor=#6c8ebf;" vertex="1" parent="1">
          <mxGeometry x="626.5" y="1160" width="78" height="20" as="geometry" />
        </mxCell>
        <mxCell id="WfShSH8Nfw88cSmPW10R-118" value="Play a Quiz" style="rounded=1;whiteSpace=wrap;html=1;fillColor=#d5e8d4;strokeColor=#82b366;" vertex="1" parent="1">
          <mxGeometry x="40" y="310" width="160" height="40" as="geometry" />
        </mxCell>
      </root>
    </mxGraphModel>
  </diagram>
</mxfile>
